HIERARCHY
ROOT joint_Root
{
	OFFSET 0.0 0.0 0.0
	CHANNELS 6 Xposition Yposition Zposition Zrotation Xrotation Yrotation 
	JOINT Hips
	{
		OFFSET 4.5925 91.4895 -427.239
		CHANNELS 6 Xposition Yposition Zposition Zrotation Xrotation Yrotation 
		JOINT Spine
		{
			OFFSET 15.7357 0.0 0.0
			CHANNELS 6 Xposition Yposition Zposition Zrotation Xrotation Yrotation 
			JOINT Chest
			{
				OFFSET 8.98455 -0.406207 0.0
				CHANNELS 6 Xposition Yposition Zposition Zrotation Xrotation Yrotation 
				JOINT Neck
				{
					OFFSET 16.3773 0.0 0.0
					CHANNELS 6 Xposition Yposition Zposition Zrotation Xrotation Yrotation 
					JOINT Head
					{
						OFFSET 6.45672 0.0 0.0
						CHANNELS 6 Xposition Yposition Zposition Zrotation Xrotation Yrotation 
						End Site
						{
							OFFSET 0.0 0.0 0.0
						}
					}
				}
				JOINT Shoulder_L
				{
					OFFSET 12.9942 -0.242716 4.98039
					CHANNELS 6 Xposition Yposition Zposition Zrotation Xrotation Yrotation 
					JOINT UpperArm_L
					{
						OFFSET 5.34809 0.0 0.0
						CHANNELS 6 Xposition Yposition Zposition Zrotation Xrotation Yrotation 
						JOINT LowerArm_L
						{
							OFFSET 24.3286 1.87007e-05 0.0
							CHANNELS 6 Xposition Yposition Zposition Zrotation Xrotation Yrotation 
							JOINT Hand_L
							{
								OFFSET 22.2916 0.0 0.0
								CHANNELS 6 Xposition Yposition Zposition Zrotation Xrotation Yrotation 
								End Site
								{
									OFFSET 0.0 0.0 0.0
								}
							}
						}
					}
				}
				JOINT Shoulder_R
				{
					OFFSET 12.9945 -0.242716 -4.98039
					CHANNELS 6 Xposition Yposition Zposition Zrotation Xrotation Yrotation 
					JOINT UpperArm_R
					{
						OFFSET -5.34813 0.0 0.0
						CHANNELS 6 Xposition Yposition Zposition Zrotation Xrotation Yrotation 
						JOINT LowerArm_R
						{
							OFFSET -24.3289 0.000322201 0.0
							CHANNELS 6 Xposition Yposition Zposition Zrotation Xrotation Yrotation 
							JOINT Hand_R
							{
								OFFSET -22.2915 -0.000108084 0.0
								CHANNELS 6 Xposition Yposition Zposition Zrotation Xrotation Yrotation 
								End Site
								{
									OFFSET 0.0 0.0 0.0
								}
							}
						}
					}
				}
			}
		}
		JOINT UpperLeg_L
		{
			OFFSET -2.19248 -6.46944 0.0
			CHANNELS 6 Xposition Yposition Zposition Zrotation Xrotation Yrotation 
			JOINT LowerLeg_L
			{
				OFFSET 39.0811 0.0 -1.23785e-05
				CHANNELS 6 Xposition Yposition Zposition Zrotation Xrotation Yrotation 
				JOINT Foot_L
				{
					OFFSET 40.9854 0.0 -1.26872e-05
					CHANNELS 6 Xposition Yposition Zposition Zrotation Xrotation Yrotation 
					JOINT Toes_L
					{
						OFFSET 11.7543 0.0 0.0
						CHANNELS 6 Xposition Yposition Zposition Zrotation Xrotation Yrotation 
						End Site
						{
							OFFSET 0.0 0.0 0.0
						}
					}
				}
			}
		}
		JOINT UpperLeg_R
		{
			OFFSET -2.19251 6.46944 0.0
			CHANNELS 6 Xposition Yposition Zposition Zrotation Xrotation Yrotation 
			JOINT LowerLeg_R
			{
				OFFSET -39.0811 -0.00228153 -0.0401928
				CHANNELS 6 Xposition Yposition Zposition Zrotation Xrotation Yrotation 
				JOINT Foot_R
				{
					OFFSET -40.9854 0.0 0.0
					CHANNELS 6 Xposition Yposition Zposition Zrotation Xrotation Yrotation 
					JOINT Toes_R
					{
						OFFSET -11.7543 0.0 0.0
						CHANNELS 6 Xposition Yposition Zposition Zrotation Xrotation Yrotation 
						End Site
						{
							OFFSET 0.0 0.0 0.0
						}
					}
				}
			}
		}
	}
}
MOTION
Frames:	9
Frame Time:	0.0333333
0.000000 0.000000 0.000000 0.000000 0.000000 -0.000000 2.681620 92.722200 433.768000 -92.213000 12.088400 160.823000 15.735700 0.000005 -0.000001 127.037000 80.102600 -131.341000 8.984550 -0.406207 -0.000000 8.636370 11.835800 -9.521100 16.377300 -0.000001 -0.000001 0.817012 -7.076400 2.783120 6.456720 -0.000001 -0.000000 -14.379300 -14.286500 2.348620 12.994200 -0.242716 4.980390 -82.709300 -15.672600 -64.657700 5.348090 -0.000007 -0.000001 -63.486500 9.372830 35.191900 24.328600 0.000019 0.000005 16.586300 14.556900 -49.840800 22.291600 -0.000001 0.000005 -3.309840 5.434410 -4.090820 12.994500 -0.242716 -4.980390 91.241600 -7.888590 -81.026100 -5.348130 -0.000001 -0.000004 -59.312600 10.790700 -59.517200 -24.328900 0.000322 -0.000009 -8.973810 2.736440 -106.821000 -22.291500 -0.000108 -0.000004 11.121400 5.455170 -4.825220 -2.192480 -6.469440 -0.000000 173.050000 -2.232510 -57.516500 39.081100 -0.000007 -0.000012 -0.006406 0.004628 54.174800 40.985400 -0.000006 -0.000013 -0.162152 -1.376460 -73.613100 11.754300 -0.000000 0.000003 -0.004698 -0.058516 -18.957500 -2.192510 6.469440 -0.000001 163.485000 27.737000 -174.636000 -39.081100 -0.002282 -0.040193 0.256551 -0.449114 29.418300 -40.985400 0.000008 0.000006 -0.058269 17.519300 -29.483300 -11.754300 -0.000006 -0.000006 -0.017950 -0.155654 -22.928900
0.000000 0.000000 0.000000 0.000000 0.000000 -0.000000 3.816420 92.173500 424.596000 -89.300900 12.035100 163.614000 15.735700 0.000005 -0.000001 125.233000 79.266500 -129.036000 8.984550 -0.406207 -0.000000 10.364100 12.219400 -8.737030 16.377300 -0.000001 -0.000001 0.113204 -6.158590 2.690680 6.456720 -0.000001 -0.000000 -13.461300 -13.975100 3.699450 12.994200 -0.242716 4.980390 -84.348200 -12.139800 -64.798700 5.348090 -0.000007 -0.000001 -64.474100 6.381880 30.794600 24.328600 0.000019 0.000005 15.276000 12.238900 -52.182100 22.291600 -0.000001 0.000005 -2.037330 5.438890 -4.246810 12.994500 -0.242716 -4.980390 90.808800 -6.101720 -82.434700 -5.348130 -0.000001 -0.000004 -59.596300 16.945500 -51.520800 -24.328900 0.000322 -0.000009 -9.828370 2.387380 -103.519000 -22.291500 -0.000108 -0.000004 11.795300 5.472120 -5.449760 -2.192480 -6.469440 -0.000000 175.537000 -6.560110 -47.382000 39.081100 -0.000007 -0.000012 -0.060548 0.083427 35.971300 40.985400 -0.000006 -0.000013 -3.816060 3.915270 -74.758200 11.754300 -0.000000 0.000003 -0.005315 -0.064487 -19.200800 -2.192510 6.469440 -0.000001 167.757000 16.071200 -172.090000 -39.081100 -0.002282 -0.040193 0.270846 -0.358131 36.763700 -40.985400 0.000008 0.000006 0.492742 8.346060 -27.602300 -11.754300 -0.000006 -0.000006 -0.017740 -0.154434 -22.878700
0.000000 0.000000 0.000000 0.000000 0.000000 -0.000000 4.770880 90.568600 415.238000 -86.756000 11.070200 165.819000 15.735700 0.000005 -0.000001 121.866000 79.021500 -125.019000 8.984550 -0.406207 -0.000000 11.372300 11.404600 -7.459920 16.377300 -0.000001 -0.000001 -0.236431 -5.217070 2.964570 6.456720 -0.000001 -0.000000 -13.494200 -12.617300 4.332840 12.994200 -0.242716 4.980390 -86.748400 -7.305640 -65.926600 5.348090 -0.000007 -0.000001 -64.643800 1.387440 25.767200 24.328600 0.000019 0.000005 14.262200 10.779100 -53.656300 22.291600 -0.000001 0.000005 -0.096239 5.437540 -4.199900 12.994500 -0.242716 -4.980390 90.371700 -3.112080 -83.185800 -5.348130 -0.000001 -0.000004 -60.435000 23.458300 -42.894100 -24.328900 0.000322 -0.000009 -12.258900 1.318660 -96.044800 -22.291500 -0.000108 -0.000004 13.348500 5.521840 -7.440490 -2.192480 -6.469440 -0.000000 176.381000 -10.585200 -41.160000 39.081100 -0.000007 -0.000012 -0.000117 0.000204 30.006000 40.985400 -0.000006 -0.000013 -4.010550 0.117359 -77.367700 11.754300 -0.000000 0.000003 -0.004445 -0.055999 -18.854900 -2.192510 6.469440 -0.000001 173.193000 8.745090 -172.054000 -39.081100 -0.002282 -0.040193 0.288267 -0.246084 49.192900 -40.985400 0.000008 0.000006 2.144850 7.745080 -25.066600 -11.754300 -0.000006 -0.000006 -0.019498 -0.164490 -23.292600
0.000000 0.000000 0.000000 0.000000 0.000000 -0.000000 5.059210 88.071100 406.575000 -86.814300 8.668740 165.948000 15.735700 0.000005 -0.000001 114.887000 79.885900 -118.010000 8.984550 -0.406207 -0.000000 10.907000 8.366100 -7.052510 16.377300 -0.000001 -0.000001 -0.115858 -4.250380 3.367130 6.456720 -0.000001 -0.000000 -14.992300 -11.073700 4.621130 12.994200 -0.242716 4.980390 -89.497500 -1.235670 -67.870300 5.348090 -0.000007 -0.000001 -63.886600 -3.942420 19.514100 24.328600 0.000019 0.000005 10.418600 7.430520 -54.879700 22.291600 -0.000001 0.000005 0.455715 5.444530 -4.445230 12.994500 -0.242716 -4.980390 89.860600 1.150850 -83.093800 -5.348130 -0.000001 -0.000004 -61.083100 28.832200 -34.384700 -24.328900 0.000322 -0.000009 -15.733200 -1.418180 -84.978600 -22.291500 -0.000108 -0.000004 14.790600 5.568190 -9.595290 -2.192480 -6.469440 -0.000000 173.615000 -11.679500 -45.300600 39.081100 -0.000007 -0.000012 0.693515 -0.785393 41.447200 40.985400 -0.000006 -0.000013 5.578470 -6.653420 -67.497100 11.754300 -0.000000 0.000003 -0.007450 -0.083492 -19.976100 -2.192510 6.469440 -0.000001 174.177000 8.925720 -179.782000 -39.081100 -0.002282 -0.040193 0.449506 -0.168051 69.370500 -40.985400 0.000008 0.000006 -2.345460 9.732500 -18.584300 -11.754300 -0.000006 -0.000006 -0.019342 -0.163616 -23.256600
0.000000 0.000000 0.000000 0.000000 0.000000 -0.000000 4.965050 84.534000 398.908000 -88.453900 5.185840 166.210000 15.735700 0.000005 -0.000001 103.311000 80.868800 -106.600000 8.984550 -0.406207 -0.000000 10.152400 4.109050 -6.942760 16.377300 -0.000001 -0.000001 -1.646010 -4.115400 3.227920 6.456720 -0.000001 -0.000000 -13.665700 -9.093970 5.521850 12.994200 -0.242716 4.980390 -91.543500 4.262920 -70.073100 5.348090 -0.000007 -0.000001 -64.046000 -5.915090 11.541500 24.328600 0.000019 0.000005 4.592100 2.761060 -59.049800 22.291600 -0.000001 0.000005 0.030184 5.436860 -4.176180 12.994500 -0.242716 -4.980390 89.297900 5.859600 -83.155300 -5.348130 -0.000001 -0.000004 -62.157300 31.057700 -23.877100 -24.328900 0.000322 -0.000009 -17.840500 -5.859790 -72.399200 -22.291500 -0.000108 -0.000004 14.370500 5.596790 -11.153300 -2.192480 -6.469440 -0.000000 173.441000 -7.365220 -47.033100 39.081100 -0.000007 -0.000012 -0.064379 0.045420 54.799100 40.985400 -0.000006 -0.000013 4.856080 -6.511010 -72.737300 11.754300 -0.000000 0.000003 -0.002887 -0.039328 -18.176100 -2.192510 6.469440 -0.000001 174.057000 10.559900 167.958000 -39.081100 -0.002282 -0.040193 0.591877 0.030455 92.970400 -40.985400 0.000008 0.000006 -5.456730 9.983910 -11.633600 -11.754300 -0.000006 -0.000006 -0.019405 -0.163972 -23.271300
0.000000 0.000000 0.000000 0.000000 0.000000 -0.000000 4.627460 81.442100 391.546000 -91.888300 0.845232 168.340000 15.735700 0.000005 -0.000001 91.153500 80.123500 -95.005200 8.984550 -0.406207 -0.000000 12.003300 0.251590 -7.728090 16.377300 -0.000001 -0.000001 -4.175190 -4.997920 2.253180 6.456720 -0.000001 -0.000000 -13.110700 -8.732960 7.134940 12.994200 -0.242716 4.980390 -92.103200 6.713920 -72.561200 5.348090 -0.000007 -0.000001 -67.578700 -1.620430 -3.811360 24.328600 0.000019 0.000005 2.103210 0.930535 -66.147400 22.291600 -0.000001 0.000005 1.119610 5.480140 -5.752150 12.994500 -0.242716 -4.980390 88.784000 9.467090 -82.646500 -5.348130 -0.000001 -0.000004 -63.443400 28.271300 -13.210300 -24.328900 0.000322 -0.000009 -18.520200 -12.745700 -56.631700 -22.291500 -0.000108 -0.000004 12.933700 5.609490 -11.926900 -2.192480 -6.469440 -0.000000 171.072000 -2.675630 -43.146700 39.081100 -0.000007 -0.000012 -0.426804 0.215574 63.203100 40.985400 -0.000006 -0.000013 3.988000 -7.561900 -82.434500 11.754300 -0.000000 0.000003 -0.000033 -0.000388 -16.592700 -2.192510 6.469440 -0.000001 172.898000 11.500700 154.240000 -39.081100 -0.002282 -0.040193 0.425060 0.187223 113.949000 -40.985400 0.000008 0.000006 -5.868080 10.185800 -6.336970 -11.754300 -0.000006 -0.000006 -0.019608 -0.165107 -23.318000
0.000000 0.000000 0.000000 0.000000 0.000000 -0.000000 4.537930 79.354400 384.008000 -93.077000 -2.951220 169.055000 15.735700 0.000005 -0.000001 85.429200 79.694700 -89.022200 8.984550 -0.406207 -0.000000 12.737200 -1.782290 -6.986860 16.377300 -0.000001 -0.000001 -4.736210 -6.019950 1.798850 6.456720 -0.000001 -0.000000 -12.822700 -8.876040 7.040280 12.994200 -0.242716 4.980390 -91.386400 5.066800 -74.676000 5.348090 -0.000007 -0.000001 -69.889200 8.538760 -22.928200 24.328600 0.000019 0.000005 1.022010 0.298234 -73.729000 22.291600 -0.000001 0.000005 0.914108 5.500350 -6.547470 12.994500 -0.242716 -4.980390 88.721600 8.693570 -81.601100 -5.348130 -0.000001 -0.000004 -65.402500 25.840700 -3.012580 -24.328900 0.000322 -0.000009 -11.800200 -15.335500 -38.298700 -22.291500 -0.000108 -0.000004 12.974400 5.592120 -10.879100 -2.192480 -6.469440 -0.000000 170.617000 -1.095770 -37.552900 39.081100 -0.000007 -0.000012 -0.479062 0.203542 66.981600 40.985400 -0.000006 -0.000013 3.859190 -6.447620 -90.636100 11.754300 -0.000000 0.000003 -0.000116 -0.001172 -16.622400 -2.192510 6.469440 -0.000001 174.040000 10.848900 136.959000 -39.081100 -0.002282 -0.040193 0.111142 0.083756 127.873000 -40.985400 0.000008 0.000006 -5.803630 8.510250 -0.874876 -11.754300 -0.000006 -0.000006 -0.020056 -0.167599 -23.420600
0.000000 0.000000 0.000000 0.000000 0.000000 -0.000000 5.207650 79.063200 375.175000 -91.710200 -7.477520 168.684000 15.735700 0.000005 -0.000001 78.364900 79.937100 -80.620800 8.984550 -0.406207 -0.000000 11.890700 -4.104960 -4.084100 16.377300 -0.000001 -0.000001 -4.455210 -6.098810 0.906560 6.456720 -0.000001 -0.000000 -11.914800 -7.992840 7.349840 12.994200 -0.242716 4.980390 -90.085600 0.370920 -77.026600 5.348090 -0.000007 -0.000001 -68.244800 15.187700 -38.458500 24.328600 0.000019 0.000005 0.844562 0.081011 -84.544100 22.291600 -0.000001 0.000005 -1.219800 5.496590 -6.396620 12.994500 -0.242716 -4.980390 88.372200 8.432210 -79.032000 -5.348130 -0.000001 -0.000004 -63.077700 26.644700 9.913740 -24.328900 0.000322 -0.000009 -3.341970 -4.250160 -38.228500 -22.291500 -0.000108 -0.000004 7.899880 5.605660 -11.686700 -2.192480 -6.469440 -0.000000 174.435000 -1.361220 -29.129900 39.081100 -0.000007 -0.000012 -0.450013 0.217013 64.256000 40.985400 -0.000006 -0.000013 4.254270 -2.431720 -96.578200 11.754300 -0.000000 0.000003 -0.000120 -0.001200 -16.623400 -2.192510 6.469440 -0.000001 178.801000 10.663200 122.789000 -39.081100 -0.002282 -0.040193 -0.150083 -0.138747 132.107000 -40.985400 0.000008 0.000006 -1.875880 7.448580 -6.080030 -11.754300 -0.000006 -0.000006 -0.022020 -0.178233 -23.859000
0.000000 0.000000 0.000000 0.000000 0.000000 -0.000000 6.185170 81.085300 364.891000 -88.493400 -10.915500 167.249000 15.735700 0.000005 -0.000001 67.913800 80.531700 -68.337300 8.984550 -0.406207 -0.000000 9.810030 -7.084400 -0.238494 16.377300 -0.000001 -0.000001 -3.725580 -5.661500 0.689545 6.456720 -0.000001 -0.000000 -11.334400 -5.166180 7.157400 12.994200 -0.242716 4.980390 -88.981100 -4.812830 -78.031300 5.348090 -0.000007 -0.000001 -65.787300 15.747300 -47.052400 24.328600 0.000019 0.000005 -2.870670 0.316322 -96.270900 22.291600 -0.000001 0.000005 -1.042800 5.497160 -6.419320 12.994500 -0.242716 -4.980390 88.364400 6.494810 -75.831200 -5.348130 -0.000001 -0.000004 -61.891400 34.326500 19.953800 -24.328900 0.000322 -0.000009 -8.274240 -8.084860 -45.952400 -22.291500 -0.000108 -0.000004 4.151870 5.592800 -10.919000 -2.192480 -6.469440 -0.000000 -178.643000 -2.912130 -16.870100 39.081100 -0.000007 -0.000012 -0.499707 0.409679 50.655000 40.985400 -0.000006 -0.000013 4.169730 2.800630 -97.352700 11.754300 -0.000000 0.000003 -0.000003 -0.000058 -16.579800 -2.192510 6.469440 -0.000001 -174.846000 7.946410 114.937000 -39.081100 -0.002282 -0.040193 -0.237018 -0.180478 126.889000 -40.985400 0.000008 0.000006 3.761300 4.271060 -21.798900 -11.754300 -0.000006 -0.000006 -0.019525 -0.164645 -23.299000
